<svg width="350" height="116" version="1.1" xmlns="http://www.w3.org/2000/svg" desc="Created with imagetracer.js version 1.2.6" ><path fill="rgb(254,254,254)" stroke="rgb(254,254,254)" stroke-width="1" opacity="1" d="M 0.5 1 Q 2.8 0.3 2 2.5 L 0.5 1 Z " /><path fill="rgb(254,254,254)" stroke="rgb(254,254,254)" stroke-width="1" opacity="1" d="M 0.5 6 Q 2.8 5.3 2 7.5 L 0.5 6 Z " /><path fill="rgb(254,254,254)" stroke="rgb(254,254,254)" stroke-width="1" opacity="1" d="M 1.5 11 L 0.5 13 L 1.5 11 Z " /><path fill="rgb(254,254,254)" stroke="rgb(254,254,254)" stroke-width="1" opacity="1" d="M 0.5 18 Q 2.8 17.3 2 19.5 L 0 20.5 L 0.5 18 Z " /><path fill="rgb(254,254,254)" stroke="rgb(254,254,254)" stroke-width="1" opacity="1" d="M 1.5 30 L 2 32 L 0 31.5 L 1.5 30 Z " /><path fill="rgb(254,254,254)" stroke="rgb(254,254,254)" stroke-width="1" opacity="1" d="M 0.5 33 Q 2.8 32.3 2 34.5 L 0.5 33 Z " /><path fill="rgb(254,254,254)" stroke="rgb(254,254,254)" stroke-width="1" opacity="1" d="M 0.5 38 Q 2.8 37.3 2 39.5 L 0.5 38 Z " /><path fill="rgb(254,254,254)" stroke="rgb(254,254,254)" stroke-width="1" opacity="1" d="M 1.5 43 L 0.5 45 L 1.5 43 Z " /><path fill="rgb(254,254,254)" stroke="rgb(254,254,254)" stroke-width="1" opacity="1" d="M 0.5 50 Q 2.8 49.3 2 51.5 L 0 52.5 L 0.5 50 Z " /><path fill="rgb(254,254,254)" stroke="rgb(254,254,254)" stroke-width="1" opacity="1" d="M 1.5 62 L 2 64 L 0 63.5 L 1.5 62 Z " /><path fill="rgb(254,254,254)" stroke="rgb(254,254,254)" stroke-width="1" opacity="1" d="M 0.5 65 Q 2.8 64.3 2 66.5 L 0.5 65 Z " /><path fill="rgb(254,254,254)" stroke="rgb(254,254,254)" stroke-width="1" opacity="1" d="M 113.5 66 L 114.5 68 L 113.5 66 Z " /><path fill="rgb(254,254,254)" stroke="rgb(254,254,254)" stroke-width="1" opacity="1" d="M 0.5 70 Q 2.8 69.3 2 71.5 L 0.5 70 Z " /><path fill="rgb(254,254,254)" stroke="rgb(254,254,254)" stroke-width="1" opacity="1" d="M 1.5 75 L 0.5 77 L 1.5 75 Z " /><path fill="rgb(254,254,254)" stroke="rgb(254,254,254)" stroke-width="1" opacity="1" d="M 0.5 82 Q 2.8 81.3 2 83.5 L 0 84.5 L 0.5 82 Z " /><path fill="rgb(254,254,254)" stroke="rgb(254,254,254)" stroke-width="1" opacity="1" d="M 1.5 94 L 2 96 L 0 95.5 L 1.5 94 Z " /><path fill="rgb(254,254,254)" stroke="rgb(254,254,254)" stroke-width="1" opacity="1" d="M 0.5 97 Q 2.8 96.3 2 98.5 L 0.5 97 Z " /><path fill="rgb(254,254,254)" stroke="rgb(254,254,254)" stroke-width="1" opacity="1" d="M 0.5 102 Q 2.8 101.3 2 103.5 L 0.5 102 Z " /><path fill="rgb(254,254,254)" stroke="rgb(254,254,254)" stroke-width="1" opacity="1" d="M 1.5 107 L 0.5 109 L 1.5 107 Z " /><path fill="rgb(254,254,254)" stroke="rgb(254,254,254)" stroke-width="1" opacity="1" d="M 0.5 114 Q 2.8 113.3 2 115.5 L 0.5 114 Z " /><path fill="rgb(255,255,255)" stroke="rgb(255,255,255)" stroke-width="1" opacity="1" d="M 0.5 0 L 349.5 0 L 350 0.5 L 350 116 L 2.5 116 L 2 114 L 0.5 114 L 1 112.5 L 0 109.5 L 0 107.5 L 1 105.5 L 0 103.5 L 2 103.5 Q 2.8 101.3 0.5 102 L 0 99.5 L 0.5 98 L 2 98.5 Q 2.8 96.3 0.5 97 L 0.5 96 Q 2.8 96.8 2 94.5 L 0 94.5 Q -0.8 92.3 1.5 93 L 1.5 92 Q -1.1 92.7 0 90 L 2 89.5 L 0 89 Q -1.1 86.3 1.5 87 L 1.5 86 L 0 85.5 L 0.5 83 L 2 83.5 Q 2.8 81.3 0.5 82 L 1 80.5 L 0 77.5 L 0 75.5 L 1 73.5 L 0 71.5 L 2 71.5 Q 2.8 69.3 0.5 70 L 0 67.5 L 0.5 66 L 2 66.5 Q 2.8 64.3 0.5 65 L 0.5 64 Q 2.8 64.8 2 62.5 L 0 62.5 Q -0.8 60.3 1.5 61 L 1.5 60 Q -1.1 60.7 0 58 L 2 57.5 L 0 57 Q -1.1 54.3 1.5 55 L 1.5 54 L 0 53.5 L 0.5 51 L 2 51.5 Q 2.8 49.3 0.5 50 L 1 48.5 L 0 45.5 L 0 43.5 L 1 41.5 L 0 39.5 L 2 39.5 Q 2.8 37.3 0.5 38 L 0 35.5 L 0.5 34 L 2 34.5 Q 2.8 32.3 0.5 33 L 0.5 32 Q 2.8 32.8 2 30.5 L 0 30.5 Q -0.8 28.3 1.5 29 L 1.5 28 Q -1.1 28.7 0 26 L 2 25.5 L 0 25 Q -1.1 22.3 1.5 23 L 1.5 22 L 0 21.5 L 0.5 19 L 2 19.5 Q 2.8 17.3 0.5 18 L 1 16.5 L 0 13.5 L 0 11.5 L 1 9.5 L 0 7.5 L 2 7.5 Q 2.8 5.3 0.5 6 L 0 3.5 L 0.5 2 L 2 2.5 Q 2.8 0.3 0.5 1 L 0.5 0 Z M 43 26 L 38 29 L 32 37 L 32 80 L 35 85 L 43 90 L 86 90 L 91 87 L 96 80 L 96 37 L 93 32 L 86 26 L 43 26 Z M 137 40 L 137 62 L 133 57 L 133 44 Q 132 41 127 42 L 127 51 L 126 52 Q 128 58 124 57 L 123 54 L 123 43 L 117 43 L 117 54 L 112 66 L 116 68 L 119 64 Q 121 61 122 64 L 120 67 L 125 70 L 128 66 L 130 64 L 134 68 L 137 66 L 137 77 L 143 77 L 143 60 L 147 59 L 147 53 L 143 53 L 143 40 L 137 40 Z M 207 40 L 207 77 L 208 77 L 213 77 L 213 41 L 213 40 L 207 40 Z M 239 40 L 239 76 L 241 77 L 246 77 L 246 59 L 250 58 L 250 53 L 246 53 L 246 40 L 239 40 Z M 276 40 L 276 61 L 277 61 L 282 61 L 282 41 L 282 40 L 276 40 Z M 263 41 L 258 42 L 252 50 L 253 56 L 260 60 Q 266 61 270 58 L 273 52 L 272 47 Q 269 42 263 41 Z M 151 42 L 151 62 L 177 62 L 177 42 L 171 42 L 171 48 L 158 48 L 157 48 L 157 42 L 151 42 Z M 184 43 L 184 48 L 195 48 L 195 52 L 184 52 L 184 68 L 204 68 Q 206 67 205 62 Q 199 64 190 63 L 190 57 L 201 57 L 201 43 L 184 43 Z M 218 43 L 218 69 L 229 69 L 230 68 L 238 68 L 238 62 Q 233 64 224 63 L 224 58 L 235 58 L 235 53 L 224 53 L 224 48 L 235 48 L 235 43 L 218 43 Z M 257 62 L 257 76 L 282 76 L 282 62 L 257 62 Z M 147 67 L 148 72 L 181 72 L 181 67 L 147 67 Z " /><path fill="rgb(255,255,255)" stroke="rgb(255,255,255)" stroke-width="1" opacity="1" d="M 260.5 47 L 266 48 Q 267.3 52.6 264.5 54 L 261.5 55 L 258 50.5 L 260.5 47 Z " /><path fill="rgb(255,255,255)" stroke="rgb(255,255,255)" stroke-width="1" opacity="1" d="M 157 53 L 170.5 53 L 171 57 L 157.5 57 L 157 53 Z " /><path fill="rgb(255,255,255)" stroke="rgb(255,255,255)" stroke-width="1" opacity="1" d="M 263 67 L 275.5 67 L 276 71 L 263.5 71 L 263 67 Z " /><path fill="rgb(51,51,51)" stroke="rgb(51,51,51)" stroke-width="1" opacity="1" d="M 137.5 40 L 138 63.5 L 138 65.5 L 137.5 76 L 137 65.5 L 134 61.5 L 137 62.5 L 137.5 40 Z " /><path fill="rgb(51,51,51)" stroke="rgb(51,51,51)" stroke-width="1" opacity="1" d="M 276.5 40 L 277 59.5 L 276 59.5 L 276.5 40 Z " /><path fill="rgb(51,51,51)" stroke="rgb(51,51,51)" stroke-width="1" opacity="1" d="M 118.5 43 L 122 43.5 L 118.5 44 L 118.5 43 Z " /><path fill="rgb(51,51,51)" stroke="rgb(51,51,51)" stroke-width="1" opacity="1" d="M 127.5 43 L 128 49.5 L 127 49.5 L 127.5 43 Z " /><path fill="rgb(51,51,51)" stroke="rgb(51,51,51)" stroke-width="1" opacity="1" d="M 151.5 43 L 152 60.5 L 151 60.5 L 151.5 43 Z " /><path fill="rgb(51,51,51)" stroke="rgb(51,51,51)" stroke-width="1" opacity="1" d="M 171.5 43 L 172 47.5 L 170.5 49 L 156.5 49 L 156.5 48 L 170.5 48 L 171.5 43 Z " /><path fill="rgb(51,51,51)" stroke="rgb(51,51,51)" stroke-width="1" opacity="1" d="M 184.5 43 L 201 43.5 L 184.5 44 L 184.5 43 Z " /><path fill="rgb(51,51,51)" stroke="rgb(51,51,51)" stroke-width="1" opacity="1" d="M 218.5 43 L 234.5 43 L 235 46.5 L 234 46.5 L 233.5 44 L 218.5 44 L 218.5 43 Z " /><path fill="rgb(51,51,51)" stroke="rgb(51,51,51)" stroke-width="1" opacity="1" d="M 122.5 50 L 123 53.5 L 122 53.5 L 122.5 50 Z " /><path fill="rgb(51,51,51)" stroke="rgb(51,51,51)" stroke-width="1" opacity="1" d="M 171.5 53 L 172 56.5 L 170.5 58 L 156.5 58 L 156.5 57 L 170.5 57 L 171.5 53 Z " /><path fill="rgb(51,51,51)" stroke="rgb(51,51,51)" stroke-width="1" opacity="1" d="M 184.5 53 L 185 67.5 L 184 67.5 L 184.5 53 Z " /><path fill="rgb(51,51,51)" stroke="rgb(51,51,51)" stroke-width="1" opacity="1" d="M 223.5 53 L 234 53.5 L 223.5 54 L 223.5 53 Z " /><path fill="rgb(51,51,51)" stroke="rgb(51,51,51)" stroke-width="1" opacity="1" d="M 258.5 53 L 259.5 55 L 258.5 53 Z " /><path fill="rgb(51,51,51)" stroke="rgb(51,51,51)" stroke-width="1" opacity="1" d="M 266.5 53 L 265.5 55 L 266.5 53 Z " /><path fill="rgb(51,51,51)" stroke="rgb(51,51,51)" stroke-width="1" opacity="1" d="M 254.5 55 L 256.5 58 L 254.5 55 Z " /><path fill="rgb(51,51,51)" stroke="rgb(51,51,51)" stroke-width="1" opacity="1" d="M 190.5 56 L 201 56.5 L 190.5 57 L 190.5 56 Z " /><path fill="rgb(51,51,51)" stroke="rgb(51,51,51)" stroke-width="1" opacity="1" d="M 245.5 57 L 250 57.5 L 245.5 58 L 245.5 57 Z " /><path fill="rgb(51,51,51)" stroke="rgb(51,51,51)" stroke-width="1" opacity="1" d="M 120.5 60 L 124 63.5 L 121.5 66 L 123 63.5 L 120.5 61 L 119 61.5 L 120.5 60 Z " /><path fill="rgb(51,51,51)" stroke="rgb(51,51,51)" stroke-width="1" opacity="1" d="M 197.5 63 L 201 63.5 L 197.5 64 L 197.5 63 Z " /><path fill="rgb(51,51,51)" stroke="rgb(51,51,51)" stroke-width="1" opacity="1" d="M 112.5 64 L 114.5 67 L 112.5 64 Z " /><path fill="rgb(51,51,51)" stroke="rgb(51,51,51)" stroke-width="1" opacity="1" d="M 204.5 64 L 205 66.5 L 204 66.5 L 204.5 64 Z " /><path fill="rgb(51,51,51)" stroke="rgb(51,51,51)" stroke-width="1" opacity="1" d="M 127.5 65 L 126.5 67 L 127.5 65 Z " /><path fill="rgb(51,51,51)" stroke="rgb(51,51,51)" stroke-width="1" opacity="1" d="M 276.5 66 L 277 71.5 L 276 71.5 L 276.5 66 Z " /><path fill="rgb(51,51,51)" stroke="rgb(51,51,51)" stroke-width="1" opacity="1" d="M 148.5 67 L 180 67.5 L 148.5 68 L 148.5 67 Z " /><path fill="rgb(51,51,51)" stroke="rgb(51,51,51)" stroke-width="1" opacity="1" d="M 193.5 67 L 199 67.5 L 193.5 68 L 193.5 67 Z " /><path fill="rgb(51,51,51)" stroke="rgb(51,51,51)" stroke-width="1" opacity="1" d="M 231.5 67 L 234 67.5 L 231.5 68 L 231.5 67 Z " /><path fill="rgb(51,51,51)" stroke="rgb(51,51,51)" stroke-width="1" opacity="1" d="M 258.5 75 L 281 75.5 L 258.5 76 L 258.5 75 Z " /><path fill="rgb(10,10,10)" stroke="rgb(10,10,10)" stroke-width="1" opacity="1" d="M 138 40 L 142 40 L 142 53.5 L 146 54 L 146 58 L 142 58 L 142 75.5 L 138 76 L 138 65.5 L 137 64.5 L 138 63.5 L 138 40 Z " /><path fill="rgb(10,10,10)" stroke="rgb(10,10,10)" stroke-width="1" opacity="1" d="M 208.5 40 L 212 40.5 L 212 76 L 207 75.5 L 207 41.5 L 208.5 40 Z " /><path fill="rgb(10,10,10)" stroke="rgb(10,10,10)" stroke-width="1" opacity="1" d="M 240 40 L 245 40 L 245 53.5 L 250 54 L 250 57 L 245 57 L 245 75.5 L 240 76 L 240 40 Z " /><path fill="rgb(10,10,10)" stroke="rgb(10,10,10)" stroke-width="1" opacity="1" d="M 277 40 L 281 40.5 L 281 60 L 277 59.5 L 277 40 Z " /><path fill="rgb(10,10,10)" stroke="rgb(10,10,10)" stroke-width="1" opacity="1" d="M 262.5 42 L 270 45.5 L 272 51.5 L 267.5 58 L 259.5 59 L 254 54.5 L 253 49.5 L 256.5 44 L 262.5 42 Z M 261 46 L 257 51 L 258 54 L 263 56 L 266 55 Q 268 54 267 49 Q 266 45 261 46 Z " /><path fill="rgb(10,10,10)" stroke="rgb(10,10,10)" stroke-width="1" opacity="1" d="M 128 43 L 132 43.5 L 132 56.5 L 136 65.5 L 133.5 67 L 129.5 62 L 124.5 69 L 121 66.5 Q 125.6 63.1 127 56.5 L 128 43 Z " /><path fill="rgb(10,10,10)" stroke="rgb(10,10,10)" stroke-width="1" opacity="1" d="M 152 43 L 156 43 L 156 48.5 L 156.5 49 L 170.5 49 Q 173.3 47.6 172 43 L 176 43.5 L 176 61 L 152 61 L 152 43 Z M 156 52 L 156 58 L 171 58 Q 173 57 172 54 L 171 52 L 156 52 Z " /><path fill="rgb(10,10,10)" stroke="rgb(10,10,10)" stroke-width="1" opacity="1" d="M 118 44 L 122 44 L 122 53.5 L 125 58.5 L 122.5 62 Q 120.8 58.3 119 61.5 L 115.5 67 L 113 63.5 Q 119.7 57.5 118 44 Z " /><path fill="rgb(10,10,10)" stroke="rgb(10,10,10)" stroke-width="1" opacity="1" d="M 184 44 L 201 44 L 201 56 L 190.5 56 L 189 57.5 L 189 64 L 200.5 64 L 204 63 L 204 67 L 193.5 67 L 192.5 68 L 185 68 L 185 53 L 196 53 L 196 47 L 184.5 47 L 184 44 Z " /><path fill="rgb(10,10,10)" stroke="rgb(10,10,10)" stroke-width="1" opacity="1" d="M 218 44 L 233.5 44 L 234 47 L 223 47 L 223 54 L 233.5 54 L 234 57 L 223 57 L 223 64 L 234.5 64 L 237 63 Q 239.3 69.4 231.5 67 L 230.5 68 L 218 68 L 218 44 Z " /><path fill="rgb(10,10,10)" stroke="rgb(10,10,10)" stroke-width="1" opacity="1" d="M 258 62 L 281 62 L 281 75 L 258 75 L 258 62 Z M 262 66 L 262 72 L 277 72 L 277 66 L 262 66 Z " /><path fill="rgb(10,10,10)" stroke="rgb(10,10,10)" stroke-width="1" opacity="1" d="M 148 68 L 179.5 68 L 180 71 L 148.5 71 L 148 68 Z " /><path fill="rgb(251,251,251)" stroke="rgb(251,251,251)" stroke-width="1" opacity="1" d="M 245.5 40 L 246 52.5 L 245 52.5 L 245.5 40 Z " /><path fill="rgb(251,251,251)" stroke="rgb(251,251,251)" stroke-width="1" opacity="1" d="M 127.5 42 Q 132 41 133 43.5 L 132.5 49 L 132 43 L 127.5 43 L 127.5 42 Z " /><path fill="rgb(251,251,251)" stroke="rgb(251,251,251)" stroke-width="1" opacity="1" d="M 60.5 45 Q 70.3 43.3 73 48.5 L 74 52 L 69.5 52 Q 68.1 48.4 62.5 49 L 60 52.5 L 62.5 55 L 68.5 56 L 74 59.5 L 75 63.5 L 71.5 70 Q 67.7 72.7 59.5 71 L 55 67.5 L 54 64 L 59.5 64 L 60 66 L 61.5 66 L 66.5 67 Q 69.5 66.5 69 62.5 L 67.5 61 L 58.5 59 L 55 55.5 Q 53.5 47.5 58.5 46 L 60.5 45 Z " /><path fill="rgb(251,251,251)" stroke="rgb(251,251,251)" stroke-width="1" opacity="1" d="M 270.5 56 L 269.5 58 L 270.5 56 Z " /><path fill="rgb(251,251,251)" stroke="rgb(251,251,251)" stroke-width="1" opacity="1" d="M 245.5 58 L 246 75.5 L 245 75.5 L 245.5 58 Z " /><path fill="rgb(251,251,251)" stroke="rgb(251,251,251)" stroke-width="1" opacity="1" d="M 129.5 63 L 130.5 65 L 129.5 63 Z " /><path fill="rgb(228,230,234)" stroke="rgb(228,230,234)" stroke-width="1" opacity="1" d="M 40.5 27 L 39.5 29 L 40.5 27 Z " /><path fill="rgb(228,230,234)" stroke="rgb(228,230,234)" stroke-width="1" opacity="1" d="M 87.5 27 L 88.5 29 L 87.5 27 Z " /><path fill="rgb(228,230,234)" stroke="rgb(228,230,234)" stroke-width="1" opacity="1" d="M 37.5 29 L 35.5 32 L 37.5 29 Z " /><path fill="rgb(228,230,234)" stroke="rgb(228,230,234)" stroke-width="1" opacity="1" d="M 90.5 29 L 92.5 32 L 90.5 29 Z " /><path fill="rgb(228,230,234)" stroke="rgb(228,230,234)" stroke-width="1" opacity="1" d="M 34.5 33 L 33.5 35 L 34.5 33 Z " /><path fill="rgb(228,230,234)" stroke="rgb(228,230,234)" stroke-width="1" opacity="1" d="M 93.5 33 L 94.5 35 L 93.5 33 Z " /><path fill="rgb(228,230,234)" stroke="rgb(228,230,234)" stroke-width="1" opacity="1" d="M 142.5 40 L 143 53 L 147 54.5 Q 147.8 58.3 145.5 59 L 143 59.5 L 143 75.5 Q 142 78 137.5 77 L 137.5 76 L 142 76 L 142 58.5 L 146 58 L 146 54 L 142 52.5 L 142.5 40 Z " /><path fill="rgb(228,230,234)" stroke="rgb(228,230,234)" stroke-width="1" opacity="1" d="M 212.5 40 L 213 75.5 Q 212 78 207.5 77 L 207.5 76 Q 212 76.5 212 75.5 L 212.5 40 Z " /><path fill="rgb(228,230,234)" stroke="rgb(228,230,234)" stroke-width="1" opacity="1" d="M 239.5 40 L 240 76 L 245 76.5 L 240.5 77 L 239 75.5 L 239.5 40 Z " /><path fill="rgb(228,230,234)" stroke="rgb(228,230,234)" stroke-width="1" opacity="1" d="M 281.5 40 L 282 60.5 L 281 60.5 L 281.5 40 Z " /><path fill="rgb(228,230,234)" stroke="rgb(228,230,234)" stroke-width="1" opacity="1" d="M 151.5 42 L 157 42.5 L 151.5 43 L 151.5 42 Z " /><path fill="rgb(228,230,234)" stroke="rgb(228,230,234)" stroke-width="1" opacity="1" d="M 171.5 42 Q 176.9 41.4 177 42.5 L 177 62 L 151 61.5 L 176 61 L 176 43.5 Q 176 42.5 171.5 43 L 171.5 42 Z " /><path fill="rgb(228,230,234)" stroke="rgb(228,230,234)" stroke-width="1" opacity="1" d="M 117.5 43 L 118 47.5 L 117 47.5 L 117.5 43 Z " /><path fill="rgb(228,230,234)" stroke="rgb(228,230,234)" stroke-width="1" opacity="1" d="M 268.5 43 L 270.5 46 L 268.5 43 Z " /><path fill="rgb(228,230,234)" stroke="rgb(228,230,234)" stroke-width="1" opacity="1" d="M 62.5 44 L 66 44.5 L 62.5 45 L 62.5 44 Z " /><path fill="rgb(228,230,234)" stroke="rgb(228,230,234)" stroke-width="1" opacity="1" d="M 254.5 45 L 253.5 47 L 254.5 45 Z " /><path fill="rgb(228,230,234)" stroke="rgb(228,230,234)" stroke-width="1" opacity="1" d="M 57.5 46 L 55.5 49 L 57.5 46 Z " /><path fill="rgb(228,230,234)" stroke="rgb(228,230,234)" stroke-width="1" opacity="1" d="M 71.5 46 L 72.5 48 L 71.5 46 Z " /><path fill="rgb(228,230,234)" stroke="rgb(228,230,234)" stroke-width="1" opacity="1" d="M 184.5 47 L 194.5 47 L 196 48.5 Q 196.8 52.3 194.5 53 L 184 52.5 L 195 52 L 195 48 L 184.5 48 L 184.5 47 Z " /><path fill="rgb(228,230,234)" stroke="rgb(228,230,234)" stroke-width="1" opacity="1" d="M 224.5 47 L 235 47.5 L 224 48 L 223.5 53 L 223 48.5 L 224.5 47 Z " /><path fill="rgb(228,230,234)" stroke="rgb(228,230,234)" stroke-width="1" opacity="1" d="M 62.5 49 L 66 49.5 L 62.5 50 L 62.5 49 Z " /><path fill="rgb(228,230,234)" stroke="rgb(228,230,234)" stroke-width="1" opacity="1" d="M 132.5 49 L 133 53.5 L 132 53.5 L 132.5 49 Z " /><path fill="rgb(228,230,234)" stroke="rgb(228,230,234)" stroke-width="1" opacity="1" d="M 67.5 50 Q 69 53 74 52.5 L 69.5 53 L 67.5 50 Z " /><path fill="rgb(228,230,234)" stroke="rgb(228,230,234)" stroke-width="1" opacity="1" d="M 54.5 51 L 55 53.5 L 54 53.5 L 54.5 51 Z " /><path fill="rgb(228,230,234)" stroke="rgb(228,230,234)" stroke-width="1" opacity="1" d="M 266.5 51 L 267 52.5 L 264 54.5 L 266.5 51 Z " /><path fill="rgb(228,230,234)" stroke="rgb(228,230,234)" stroke-width="1" opacity="1" d="M 126.5 52 L 127 54.5 L 126 54.5 L 126.5 52 Z " /><path fill="rgb(228,230,234)" stroke="rgb(228,230,234)" stroke-width="1" opacity="1" d="M 234.5 53 L 235 57.5 L 234 57.5 L 234.5 53 Z " /><path fill="rgb(228,230,234)" stroke="rgb(228,230,234)" stroke-width="1" opacity="1" d="M 64.5 55 L 67 55.5 L 64.5 56 L 64.5 55 Z " /><path fill="rgb(228,230,234)" stroke="rgb(228,230,234)" stroke-width="1" opacity="1" d="M 55.5 56 L 57.5 59 L 55.5 56 Z " /><path fill="rgb(228,230,234)" stroke="rgb(228,230,234)" stroke-width="1" opacity="1" d="M 254.5 56 L 255.5 58 L 254.5 56 Z " /><path fill="rgb(228,230,234)" stroke="rgb(228,230,234)" stroke-width="1" opacity="1" d="M 124.5 57 L 125.5 59 L 124.5 57 Z " /><path fill="rgb(228,230,234)" stroke="rgb(228,230,234)" stroke-width="1" opacity="1" d="M 189.5 57 L 190 63 L 194 63.5 L 190.5 64 Q 187.4 62.4 189.5 57 Z " /><path fill="rgb(228,230,234)" stroke="rgb(228,230,234)" stroke-width="1" opacity="1" d="M 223.5 58 L 224 63 L 231 63.5 L 223 64 L 223.5 58 Z " /><path fill="rgb(228,230,234)" stroke="rgb(228,230,234)" stroke-width="1" opacity="1" d="M 260.5 59 L 264 59.5 L 260.5 60 L 260.5 59 Z " /><path fill="rgb(228,230,234)" stroke="rgb(228,230,234)" stroke-width="1" opacity="1" d="M 62.5 60 L 65 60.5 L 62.5 61 L 62.5 60 Z " /><path fill="rgb(228,230,234)" stroke="rgb(228,230,234)" stroke-width="1" opacity="1" d="M 74.5 60 L 75 62.5 L 74 62.5 L 74.5 60 Z " /><path fill="rgb(228,230,234)" stroke="rgb(228,230,234)" stroke-width="1" opacity="1" d="M 134.5 60 L 135.5 62 L 134.5 60 Z " /><path fill="rgb(228,230,234)" stroke="rgb(228,230,234)" stroke-width="1" opacity="1" d="M 67.5 61 L 68.5 63 L 67.5 61 Z " /><path fill="rgb(228,230,234)" stroke="rgb(228,230,234)" stroke-width="1" opacity="1" d="M 120.5 61 Q 122.3 64.1 124 62.5 L 121 66.5 L 124.5 69 L 128 66.5 L 123.5 70 L 120 65.5 Q 123.8 63.8 120.5 62 L 119 62.5 L 120.5 61 Z " /><path fill="rgb(228,230,234)" stroke="rgb(228,230,234)" stroke-width="1" opacity="1" d="M 202.5 62 L 205 62.5 L 202.5 63 L 202.5 62 Z " /><path fill="rgb(228,230,234)" stroke="rgb(228,230,234)" stroke-width="1" opacity="1" d="M 236.5 62 L 237.5 64 L 236.5 62 Z " /><path fill="rgb(228,230,234)" stroke="rgb(228,230,234)" stroke-width="1" opacity="1" d="M 281.5 62 L 282 75.5 L 281 75.5 L 281.5 62 Z " /><path fill="rgb(228,230,234)" stroke="rgb(228,230,234)" stroke-width="1" opacity="1" d="M 54.5 63 L 59 63.5 L 54.5 64 L 54.5 63 Z " /><path fill="rgb(228,230,234)" stroke="rgb(228,230,234)" stroke-width="1" opacity="1" d="M 118.5 64 L 117.5 66 L 118.5 64 Z " /><path fill="rgb(228,230,234)" stroke="rgb(228,230,234)" stroke-width="1" opacity="1" d="M 131.5 65 L 134.5 67 L 137 65.5 L 133.5 68 L 131.5 65 Z " /><path fill="rgb(228,230,234)" stroke="rgb(228,230,234)" stroke-width="1" opacity="1" d="M 263.5 66 L 276 66.5 L 263.5 67 L 263.5 66 Z " /><path fill="rgb(228,230,234)" stroke="rgb(228,230,234)" stroke-width="1" opacity="1" d="M 180.5 67 L 181 70.5 L 180 70.5 L 180.5 67 Z " /><path fill="rgb(228,230,234)" stroke="rgb(228,230,234)" stroke-width="1" opacity="1" d="M 55.5 68 L 56.5 70 L 55.5 68 Z " /><path fill="rgb(228,230,234)" stroke="rgb(228,230,234)" stroke-width="1" opacity="1" d="M 218.5 68 L 227 68.5 L 218.5 69 L 218.5 68 Z " /><path fill="rgb(228,230,234)" stroke="rgb(228,230,234)" stroke-width="1" opacity="1" d="M 61.5 71 L 68 71.5 L 61.5 72 L 61.5 71 Z " /><path fill="rgb(228,230,234)" stroke="rgb(228,230,234)" stroke-width="1" opacity="1" d="M 263.5 71 L 276 71.5 L 263.5 72 L 263.5 71 Z " /><path fill="rgb(228,230,234)" stroke="rgb(228,230,234)" stroke-width="1" opacity="1" d="M 33.5 81 L 34.5 83 L 33.5 81 Z " /><path fill="rgb(228,230,234)" stroke="rgb(228,230,234)" stroke-width="1" opacity="1" d="M 94.5 81 L 93.5 83 L 94.5 81 Z " /><path fill="rgb(228,230,234)" stroke="rgb(228,230,234)" stroke-width="1" opacity="1" d="M 35.5 84 L 37.5 87 L 35.5 84 Z " /><path fill="rgb(228,230,234)" stroke="rgb(228,230,234)" stroke-width="1" opacity="1" d="M 92.5 84 L 90.5 87 L 92.5 84 Z " /><path fill="rgb(228,230,234)" stroke="rgb(228,230,234)" stroke-width="1" opacity="1" d="M 39.5 87 L 40.5 89 L 39.5 87 Z " /><path fill="rgb(228,230,234)" stroke="rgb(228,230,234)" stroke-width="1" opacity="1" d="M 88.5 87 L 87.5 89 L 88.5 87 Z " /><path fill="rgb(50,130,222)" stroke="rgb(50,130,222)" stroke-width="1" opacity="1" d="M 44.5 26 L 83.5 26 L 93 32.5 L 96 38.5 L 96 77.5 L 89.5 87 L 83.5 90 L 44.5 90 L 35 83.5 L 32 77.5 L 32 38.5 L 38.5 29 L 44.5 26 Z M 63 44 L 58 46 L 54 52 L 55 57 Q 58 61 67 61 L 69 65 L 65 67 L 59 63 L 54 63 L 55 69 L 62 72 L 71 71 Q 76 69 75 61 L 72 57 L 63 54 L 61 54 L 61 50 L 67 50 Q 68 54 74 53 L 73 48 Q 70 44 63 44 Z " /><path fill="rgb(50,130,222)" stroke="rgb(50,130,222)" stroke-width="1" opacity="1" d="M 156.5 43 L 157 47.5 L 156 47.5 L 156.5 43 Z " /><path fill="rgb(50,130,222)" stroke="rgb(50,130,222)" stroke-width="1" opacity="1" d="M 122.5 44 L 123 49.5 L 122 49.5 L 122.5 44 Z " /><path fill="rgb(50,130,222)" stroke="rgb(50,130,222)" stroke-width="1" opacity="1" d="M 261.5 46 L 264 46.5 L 261.5 47 L 261.5 46 Z " /><path fill="rgb(50,130,222)" stroke="rgb(50,130,222)" stroke-width="1" opacity="1" d="M 117.5 48 L 118 51.5 L 117 51.5 L 117.5 48 Z " /><path fill="rgb(50,130,222)" stroke="rgb(50,130,222)" stroke-width="1" opacity="1" d="M 157.5 52 L 171 52.5 L 157 53 L 156.5 57 L 156 53.5 L 157.5 52 Z " /><path fill="rgb(50,130,222)" stroke="rgb(50,130,222)" stroke-width="1" opacity="1" d="M 245.5 53 L 250 53.5 L 245.5 54 L 245.5 53 Z " /><path fill="rgb(50,130,222)" stroke="rgb(50,130,222)" stroke-width="1" opacity="1" d="M 223.5 57 L 234 57.5 L 223.5 58 L 223.5 57 Z " /><path fill="rgb(50,130,222)" stroke="rgb(50,130,222)" stroke-width="1" opacity="1" d="M 124.5 60 L 123.5 62 L 124.5 60 Z " /><path fill="rgb(50,130,222)" stroke="rgb(50,130,222)" stroke-width="1" opacity="1" d="M 277.5 60 L 281 60.5 L 277.5 61 L 277.5 60 Z " /><path fill="rgb(50,130,222)" stroke="rgb(50,130,222)" stroke-width="1" opacity="1" d="M 113.5 62 L 112.5 64 L 113.5 62 Z " /><path fill="rgb(50,130,222)" stroke="rgb(50,130,222)" stroke-width="1" opacity="1" d="M 257.5 62 L 258 74.5 L 257 74.5 L 257.5 62 Z " /><path fill="rgb(50,130,222)" stroke="rgb(50,130,222)" stroke-width="1" opacity="1" d="M 194.5 63 L 197 63.5 L 194.5 64 L 194.5 63 Z " /><path fill="rgb(50,130,222)" stroke="rgb(50,130,222)" stroke-width="1" opacity="1" d="M 262.5 67 L 263 70.5 L 262 70.5 L 262.5 67 Z " /><path fill="rgb(50,130,222)" stroke="rgb(50,130,222)" stroke-width="1" opacity="1" d="M 147.5 68 L 148 71 L 180 71.5 L 148.5 72 Q 146 71 147.5 68 Z " /></svg>